<mxfile host="app.diagrams.net" modified="2020-12-16T02:22:20.606Z" agent="5.0 (Windows NT 10.0; Win64; x64) AppleWebKit/537.36 (KHTML, like Gecko) Chrome/87.0.4280.88 Safari/537.36 Edg/87.0.664.60" etag="-V-Ex0pzXP8dD7gbot-9" version="14.0.1" type="github">
  <diagram id="a-LBntx6BMvN0RE3ZAUs" name="第 1 页">
    <mxGraphModel dx="1171" dy="701" grid="1" gridSize="10" guides="1" tooltips="1" connect="1" arrows="1" fold="1" page="1" pageScale="1" pageWidth="827" pageHeight="1169" math="0" shadow="0">
      <root>
        <mxCell id="0" />
        <mxCell id="1" parent="0" />
        <mxCell id="UHVC3fDvapnuh2hP6q5c-1" style="edgeStyle=orthogonalEdgeStyle;rounded=0;orthogonalLoop=1;jettySize=auto;html=1;exitX=0.5;exitY=1;exitDx=0;exitDy=0;exitPerimeter=0;entryX=0.5;entryY=0;entryDx=0;entryDy=0;entryPerimeter=0;" edge="1" parent="1" source="UHVC3fDvapnuh2hP6q5c-2" target="UHVC3fDvapnuh2hP6q5c-6">
          <mxGeometry relative="1" as="geometry" />
        </mxCell>
        <mxCell id="UHVC3fDvapnuh2hP6q5c-2" value="开始" style="strokeWidth=2;html=1;shape=mxgraph.flowchart.start_1;whiteSpace=wrap;" vertex="1" parent="1">
          <mxGeometry x="330" y="60" width="70" height="40" as="geometry" />
        </mxCell>
        <mxCell id="UHVC3fDvapnuh2hP6q5c-3" value="母亲进程" style="text;html=1;strokeColor=none;fillColor=none;align=center;verticalAlign=middle;whiteSpace=wrap;rounded=0;" vertex="1" parent="1">
          <mxGeometry x="322.5" y="20" width="85" height="30" as="geometry" />
        </mxCell>
        <mxCell id="UHVC3fDvapnuh2hP6q5c-4" style="edgeStyle=orthogonalEdgeStyle;rounded=0;orthogonalLoop=1;jettySize=auto;html=1;exitX=1;exitY=0.5;exitDx=0;exitDy=0;exitPerimeter=0;" edge="1" parent="1" source="UHVC3fDvapnuh2hP6q5c-6">
          <mxGeometry relative="1" as="geometry">
            <mxPoint x="480" y="240" as="targetPoint" />
          </mxGeometry>
        </mxCell>
        <mxCell id="UHVC3fDvapnuh2hP6q5c-5" style="edgeStyle=orthogonalEdgeStyle;rounded=0;orthogonalLoop=1;jettySize=auto;html=1;exitX=0.5;exitY=1;exitDx=0;exitDy=0;exitPerimeter=0;entryX=0.5;entryY=0;entryDx=0;entryDy=0;" edge="1" parent="1" source="UHVC3fDvapnuh2hP6q5c-6" target="UHVC3fDvapnuh2hP6q5c-10">
          <mxGeometry relative="1" as="geometry" />
        </mxCell>
        <mxCell id="UHVC3fDvapnuh2hP6q5c-6" value="盘子是否为空？" style="strokeWidth=2;html=1;shape=mxgraph.flowchart.decision;whiteSpace=wrap;" vertex="1" parent="1">
          <mxGeometry x="327.5" y="140" width="75" height="70" as="geometry" />
        </mxCell>
        <mxCell id="UHVC3fDvapnuh2hP6q5c-7" value="否" style="text;html=1;strokeColor=none;fillColor=none;align=center;verticalAlign=middle;whiteSpace=wrap;rounded=0;" vertex="1" parent="1">
          <mxGeometry x="420" y="150" width="40" height="20" as="geometry" />
        </mxCell>
        <mxCell id="UHVC3fDvapnuh2hP6q5c-8" value="母亲进程阻塞" style="text;html=1;strokeColor=none;fillColor=none;align=center;verticalAlign=middle;whiteSpace=wrap;rounded=0;" vertex="1" parent="1">
          <mxGeometry x="440" y="240" width="90" height="30" as="geometry" />
        </mxCell>
        <mxCell id="UHVC3fDvapnuh2hP6q5c-9" style="edgeStyle=orthogonalEdgeStyle;rounded=0;orthogonalLoop=1;jettySize=auto;html=1;exitX=0.5;exitY=1;exitDx=0;exitDy=0;entryX=0.5;entryY=0;entryDx=0;entryDy=0;" edge="1" parent="1" source="UHVC3fDvapnuh2hP6q5c-10" target="UHVC3fDvapnuh2hP6q5c-12">
          <mxGeometry relative="1" as="geometry" />
        </mxCell>
        <mxCell id="UHVC3fDvapnuh2hP6q5c-10" value="放水果" style="rounded=1;whiteSpace=wrap;html=1;absoluteArcSize=1;arcSize=14;strokeWidth=2;" vertex="1" parent="1">
          <mxGeometry x="312" y="260" width="106" height="40" as="geometry" />
        </mxCell>
        <mxCell id="UHVC3fDvapnuh2hP6q5c-11" value="是&lt;br&gt;" style="text;html=1;strokeColor=none;fillColor=none;align=center;verticalAlign=middle;whiteSpace=wrap;rounded=0;" vertex="1" parent="1">
          <mxGeometry x="327.5" y="220" width="40" height="20" as="geometry" />
        </mxCell>
        <mxCell id="UHVC3fDvapnuh2hP6q5c-12" value="唤醒son进程" style="rounded=1;whiteSpace=wrap;html=1;absoluteArcSize=1;arcSize=14;strokeWidth=2;" vertex="1" parent="1">
          <mxGeometry x="314" y="370" width="102" height="40" as="geometry" />
        </mxCell>
      </root>
    </mxGraphModel>
  </diagram>
</mxfile>
